<?xml version="1.0" encoding="iso-8859-1"?>
<!-- Generator: Adobe Illustrator 19.1.0, SVG Export Plug-In . SVG Version: 6.00 Build 0)  -->
<svg version="1.1" id="Calque_1" xmlns="http://www.w3.org/2000/svg" xmlns:xlink="http://www.w3.org/1999/xlink" x="0px" y="0px"
	 viewBox="0 0 184.25 113.39" style="enable-background:new 0 0 184.25 113.39;" xml:space="preserve">
<g>
	<path style="fill:none;stroke:#B4C5E0;stroke-width:10;stroke-miterlimit:10;" d="M76.374,38.017L57.873,22.271
		c-1.414-1.212-2.711-0.442-3.914,0.981L14.623,69.754c-2.198,2.598,0.42,6.441,3.642,5.347l147.718-50.138
		c3.305-1.122,5.915,2.919,3.533,5.47l-44.309,47.465c-0.569,0.61-1.517,0.665-2.153,0.124l-20.378-17.466"/>
	<circle style="fill:none;stroke:#B4C5E0;stroke-width:11;stroke-miterlimit:10;" cx="75.985" cy="37.953" r="3.903"/>
	<circle style="fill:none;stroke:#B4C5E0;stroke-width:10;stroke-miterlimit:10;" cx="106" cy="62.833" r="3.903"/>
</g>
<g>
	<path style="fill:none;stroke:#009FE3;stroke-width:10;stroke-miterlimit:10;" d="M76.374,32.017L57.873,16.271
		c-1.414-1.212-2.711-0.442-3.914,0.981L14.623,63.754c-2.198,2.598,0.42,6.441,3.642,5.347l147.718-50.138
		c3.305-1.122,5.915,2.919,3.533,5.47l-44.309,47.465c-0.569,0.61-1.517,0.665-2.153,0.124l-20.378-17.466"/>
	<circle style="fill:none;stroke:#009FE3;stroke-width:11;stroke-miterlimit:10;" cx="75.985" cy="31.953" r="3.903"/>
	<circle style="fill:none;stroke:#009FE3;stroke-width:10;stroke-miterlimit:10;" cx="106" cy="56.833" r="3.903"/>
</g>
<g>
	<rect x="5.5" y="89.75" style="fill:none;" width="173.25" height="15.355"/>
	<path style="fill:#3C3C3B;" d="M8.979,90.565h4.658c0.612,0,1.193,0.06,1.743,0.179s1.031,0.317,1.445,0.595
		c0.414,0.278,0.742,0.652,0.986,1.122c0.244,0.471,0.365,1.057,0.365,1.76c0,0.85-0.221,1.572-0.663,2.167
		c-0.442,0.596-1.088,0.973-1.938,1.131l3.06,5.083h-3.179l-2.516-4.811h-1.309v4.811H8.979V90.565z M11.631,95.547h1.564
		c0.238,0,0.49-0.009,0.756-0.025c0.267-0.018,0.507-0.068,0.723-0.153s0.394-0.218,0.536-0.399
		c0.142-0.182,0.212-0.437,0.212-0.766c0-0.306-0.062-0.549-0.187-0.73c-0.125-0.182-0.283-0.32-0.476-0.417
		c-0.193-0.096-0.414-0.161-0.663-0.195c-0.249-0.034-0.493-0.051-0.731-0.051h-1.734V95.547z"/>
	<path style="fill:#3C3C3B;" d="M20.097,90.565h8.177v2.448h-5.525v2.244h5.219v2.447h-5.219v2.448h5.831v2.448h-8.483V90.565z"/>
	<path style="fill:#3C3C3B;" d="M34.666,90.565h2.193l5.236,12.036h-2.992l-1.037-2.55h-4.675l-1.003,2.55h-2.924L34.666,90.565z
		 M35.686,94.067l-1.462,3.74h2.941L35.686,94.067z"/>
	<path style="fill:#3C3C3B;" d="M51.173,93.693c-0.261-0.317-0.581-0.561-0.961-0.73c-0.379-0.17-0.819-0.255-1.317-0.255
		s-0.96,0.096-1.385,0.288c-0.425,0.193-0.793,0.462-1.105,0.808c-0.312,0.347-0.556,0.757-0.731,1.232
		c-0.176,0.477-0.264,0.992-0.264,1.548c0,0.566,0.087,1.085,0.264,1.555c0.175,0.471,0.417,0.879,0.722,1.225
		c0.306,0.346,0.666,0.614,1.08,0.808c0.414,0.192,0.858,0.289,1.334,0.289c0.544,0,1.026-0.113,1.445-0.341
		c0.419-0.227,0.765-0.544,1.037-0.951l2.21,1.648c-0.51,0.714-1.156,1.241-1.938,1.581c-0.782,0.34-1.587,0.51-2.414,0.51
		c-0.94,0-1.808-0.147-2.601-0.441c-0.793-0.295-1.479-0.717-2.057-1.267s-1.028-1.216-1.352-1.998
		c-0.323-0.781-0.484-1.654-0.484-2.617c0-0.964,0.161-1.836,0.484-2.618s0.773-1.448,1.352-1.998
		c0.578-0.549,1.264-0.972,2.057-1.267c0.793-0.294,1.66-0.441,2.601-0.441c0.34,0,0.694,0.031,1.062,0.094
		c0.368,0.062,0.731,0.161,1.088,0.297s0.7,0.317,1.028,0.544c0.329,0.228,0.623,0.505,0.884,0.833L51.173,93.693z"/>
	<path style="fill:#3C3C3B;" d="M57.276,92.911h-3.434v-2.346h9.52v2.346h-3.434v9.69h-2.652V92.911z"/>
	<path style="fill:none;stroke:#1D71B8;stroke-miterlimit:10;" d="M69.448,96.584c0-0.42,0.079-0.811,0.238-1.174
		c0.159-0.362,0.374-0.68,0.646-0.951c0.272-0.272,0.589-0.487,0.952-0.646c0.362-0.158,0.753-0.238,1.173-0.238
		c0.419,0,0.81,0.08,1.173,0.238c0.363,0.159,0.68,0.374,0.952,0.646c0.272,0.271,0.487,0.589,0.646,0.951
		c0.159,0.363,0.238,0.754,0.238,1.174c0,0.419-0.079,0.81-0.238,1.173c-0.159,0.362-0.374,0.68-0.646,0.952
		c-0.272,0.271-0.589,0.487-0.952,0.646c-0.363,0.159-0.754,0.238-1.173,0.238c-0.419,0-0.811-0.079-1.173-0.238
		c-0.363-0.158-0.68-0.374-0.952-0.646c-0.272-0.272-0.487-0.59-0.646-0.952C69.527,97.394,69.448,97.003,69.448,96.584z"/>
	<path d="M92.807,97.961c0,0.714-0.107,1.371-0.324,1.972c-0.215,0.601-0.535,1.122-0.96,1.563
		c-0.425,0.442-0.955,0.788-1.589,1.037c-0.635,0.25-1.366,0.374-2.193,0.374c-0.839,0-1.576-0.124-2.21-0.374
		c-0.635-0.249-1.165-0.595-1.59-1.037c-0.425-0.441-0.745-0.963-0.96-1.563s-0.323-1.258-0.323-1.972v-7.396h2.652v7.293
		c0,0.374,0.06,0.72,0.179,1.037c0.119,0.317,0.286,0.593,0.501,0.824c0.215,0.232,0.473,0.414,0.773,0.544
		c0.3,0.131,0.626,0.196,0.978,0.196c0.351,0,0.674-0.065,0.969-0.196c0.295-0.13,0.55-0.312,0.765-0.544
		c0.215-0.231,0.382-0.507,0.501-0.824s0.179-0.663,0.179-1.037v-7.293h2.652V97.961z"/>
	<path d="M95.254,90.565h3.604l5.117,8.364h0.033v-8.364h2.652v12.036h-3.468l-5.253-8.568h-0.034v8.568h-2.652V90.565z"/>
	<path d="M109.211,90.565h2.651v9.588h4.913v2.448h-7.564V90.565z"/>
	<path d="M118.204,90.565h2.651v12.036h-2.651V90.565z"/>
	<path d="M123.27,90.565h4.013l2.771,7.854h0.034l2.788-7.854h3.995v12.036h-2.652V93.37h-0.034l-3.162,9.231h-2.022l-3.043-9.231
		h-0.034v9.231h-2.652V90.565z"/>
	<path d="M139.284,90.565h2.651v12.036h-2.651V90.565z"/>
	<path d="M146.679,92.911h-3.434v-2.346h9.52v2.346h-3.434v9.69h-2.652V92.911z"/>
	<path d="M154.21,90.565h8.177v2.448h-5.525v2.244h5.22v2.447h-5.22v2.448h5.831v2.448h-8.482V90.565z"/>
	<path d="M164.817,90.565h3.979c0.963,0,1.878,0.108,2.745,0.323s1.624,0.563,2.27,1.045c0.646,0.482,1.159,1.108,1.539,1.879
		c0.379,0.771,0.569,1.706,0.569,2.805c0,0.976-0.185,1.834-0.553,2.576s-0.864,1.365-1.487,1.87
		c-0.624,0.504-1.343,0.887-2.159,1.147s-1.672,0.391-2.567,0.391h-4.335V90.565z M167.47,100.153h1.377
		c0.612,0,1.182-0.062,1.709-0.187c0.526-0.125,0.982-0.332,1.368-0.621c0.385-0.289,0.688-0.668,0.909-1.139
		c0.222-0.47,0.332-1.046,0.332-1.726c0-0.589-0.11-1.102-0.332-1.538c-0.221-0.437-0.519-0.796-0.893-1.08
		c-0.374-0.283-0.813-0.495-1.317-0.638c-0.504-0.141-1.034-0.212-1.589-0.212h-1.564V100.153z"/>
</g>
<g>
</g>
<g>
</g>
<g>
</g>
<g>
</g>
<g>
</g>
<g>
</g>
</svg>
